<svg width="28" height="28" viewBox="0 0 28 28" fill="none" xmlns="http://www.w3.org/2000/svg">
<path d="M13.5083 25.096C12.5783 25.0385 11.7863 24.9034 10.9277 24.6559C10.62 24.5672 10.4355 24.5038 10.0351 24.3494C8.95986 23.9347 7.84475 23.2658 6.93715 22.4913C6.5577 22.1674 6.55669 22.1659 6.5168 21.8537C6.42406 21.1279 6.20408 20.3926 5.89496 19.7753C5.58696 19.1601 5.24089 18.679 4.76508 18.2044C4.42458 17.8647 4.13155 17.6274 3.70334 17.3444C3.43306 17.1658 3.43291 17.1656 3.34814 16.838C3.17044 16.1513 3.06519 15.4855 3.01281 14.7169C2.9938 14.4378 2.99647 13.6478 3.01738 13.3642C3.07281 12.6128 3.14777 12.1065 3.29805 11.4685C3.53529 10.4614 3.97427 9.37668 4.5053 8.48545C4.7706 8.04019 5.06637 7.60281 5.28858 7.32717C5.3144 7.29513 5.4145 7.16992 5.51102 7.04892C5.60755 6.92791 5.70306 6.8136 5.72328 6.79488C5.7837 6.73895 5.85424 6.70187 6.03815 6.62937C6.64585 6.3898 7.25441 6.06758 7.5478 5.83004C7.87565 5.56459 8.01836 5.35488 8.12734 4.97842C8.21611 4.67178 8.22244 4.66287 8.4441 4.53243C9.37324 3.98565 10.3493 3.58668 11.4321 3.31101C11.9764 3.17247 12.6089 3.07093 13.2301 3.02237C13.5698 2.99581 14.4814 2.99202 14.8212 3.01575C15.9026 3.09126 16.9714 3.32074 17.9127 3.6795C18.023 3.72153 18.1528 3.77096 18.2012 3.78935C18.3719 3.85422 18.3877 3.88406 18.4681 4.29279C18.5859 4.89245 18.7942 5.48253 18.9163 5.56255C18.9401 5.57818 18.9651 5.58157 19.0137 5.5758C19.1242 5.56271 19.2769 5.46618 19.7236 5.12714C20.0092 4.91046 20.0392 4.89413 20.1527 4.89413C20.2734 4.89413 20.286 4.90139 20.6873 5.20305C21.1386 5.5423 21.4832 5.83915 21.8458 6.20108C22.2463 6.60086 22.4064 6.77792 22.7002 7.14616C23.1072 7.6564 23.3762 8.05029 23.686 8.58992C24.0749 9.2673 24.4078 10.0336 24.6499 10.8085C24.9247 11.6879 25.0874 12.636 25.124 13.5715C25.1279 13.6712 25.134 13.8148 25.1377 13.8907C25.1504 14.1569 25.1091 14.9361 25.0596 15.364C25.0046 15.8397 24.8199 16.7692 24.7331 17.0075C24.6717 17.176 24.5522 17.267 24.1635 17.4413C24.0452 17.4943 23.94 17.546 23.9299 17.5562C23.9139 17.5722 23.918 17.5856 23.9611 17.6567C23.9884 17.7018 24.0358 17.7737 24.0665 17.8164C24.2019 18.0049 24.2323 18.0532 24.2535 18.1141C24.2815 18.1944 24.2827 18.2772 24.2573 18.3629C24.1968 18.5665 23.6294 19.6621 23.5301 19.7668C23.5118 19.7861 23.4702 19.8145 23.4375 19.8298C23.3522 19.8699 23.2609 19.8589 23.0645 19.7848C22.8129 19.6899 22.7198 19.6801 22.6239 19.7384C22.5847 19.7623 22.5823 19.7681 22.5826 19.8384C22.5829 19.9239 22.6054 19.9806 22.6921 20.1147C22.7522 20.2077 22.8347 20.3634 22.8722 20.4549C22.9035 20.5312 22.8999 20.6895 22.8652 20.7544C22.8321 20.8164 22.7074 20.9716 22.4543 21.2654C22.2287 21.5272 21.7064 22.0523 21.4435 22.2815C21.3044 22.4028 21.0455 22.6145 20.8296 22.7835C20.2978 23.1997 19.6069 23.6339 18.9669 23.954C18.6247 24.1251 18.3709 24.2344 17.8028 24.4552C17.5098 24.5691 16.9841 24.7243 16.5517 24.8246C16.0661 24.9373 15.4809 25.0293 14.9958 25.069C14.9033 25.0766 14.7956 25.0857 14.7565 25.0892C14.6154 25.1019 13.6852 25.1069 13.5083 25.096ZM17.1899 21.5382C17.2939 21.3882 17.4031 21.3066 17.583 21.2446C17.6957 21.2057 17.7982 21.2007 18.2231 21.2132C18.5386 21.2225 18.5777 21.1894 18.7121 20.799C18.8962 20.2638 18.9633 20.1664 19.4802 19.6833C19.82 19.3658 20.2128 18.9066 20.507 18.4829C21.5652 16.9593 22.0974 14.957 21.9605 13.015C21.946 12.8098 21.8788 12.2491 21.8511 12.1026C21.841 12.0493 21.8207 11.9415 21.806 11.8632C21.6865 11.2258 21.4753 10.5858 21.2085 10.0526C20.6547 8.94584 19.8385 8.07998 18.6686 7.3584C18.1903 7.06342 17.7909 6.86467 17.2918 6.67337C16.9242 6.53245 16.7961 6.48944 16.5028 6.40845C15.6431 6.17106 14.8815 6.07281 14.0305 6.0895C13.5106 6.0997 13.5249 6.10387 13.1612 5.83466C13.0557 5.75656 12.9482 5.68188 12.9224 5.6687C12.863 5.63841 12.7558 5.63709 12.7124 5.66611C12.6077 5.73607 12.48 5.90558 12.3702 6.12033C12.3274 6.20405 12.2777 6.28178 12.2533 6.30327C12.2207 6.33184 12.1245 6.36886 11.8441 6.46062C11.3874 6.61007 11.351 6.61463 11.1799 6.54391C10.969 6.45672 10.8793 6.43293 10.732 6.42507C10.6137 6.41876 10.5814 6.42172 10.4992 6.44643C10.2 6.53643 9.99478 6.76156 9.87346 7.13304C9.80478 7.34333 9.80096 7.34761 9.49186 7.55984C9.18159 7.77288 8.76179 8.09112 8.56109 8.26544C8.27586 8.51318 8.01069 8.77603 7.765 9.05456C7.7152 9.11102 7.65368 9.18078 7.6283 9.20958C7.53152 9.31937 7.30441 9.61229 7.21142 9.74726C6.99159 10.0663 6.88654 10.2412 6.69835 10.6014C6.63327 10.726 6.56149 10.8471 6.53885 10.8705C6.44837 10.9641 6.33173 10.9945 5.9088 11.0343C5.6655 11.0572 5.63716 11.0629 5.63716 11.0894C5.63716 11.1 5.68518 11.1617 5.74387 11.2267C5.80256 11.2917 5.85641 11.3514 5.86352 11.3593C5.87064 11.3672 5.92011 11.4219 5.97347 11.4807C6.18497 11.7141 6.19413 11.751 6.10989 12.0289C6.07693 12.1377 5.98695 12.5763 5.962 12.7497C5.95432 12.8031 5.94227 12.8876 5.93522 12.9374C5.92393 13.0171 5.89382 13.321 5.87686 13.5262C5.83791 13.9976 5.83742 14.8006 5.87586 15.1798C5.97229 16.1311 6.27096 16.9678 6.70006 17.4887C6.79024 17.5982 6.83168 17.6294 6.85528 17.6058C6.88121 17.5799 6.89025 17.4764 6.91097 16.9687C6.95253 15.9503 7.02909 15.3173 7.17024 14.8253C7.27594 14.4568 7.36831 14.2934 7.54411 14.1638C7.64913 14.0864 7.72254 14.0505 7.85341 14.0125C7.95746 13.9824 7.98372 13.9806 8.40067 13.9749C8.89574 13.9683 8.959 13.9597 9.13994 13.8752C9.32484 13.7888 9.46659 13.6103 9.52504 13.3903C9.53654 13.3471 9.54852 13.2354 9.5521 13.138C9.55954 12.936 9.54635 12.8484 9.441 12.4003C9.37312 12.1116 9.33664 11.9022 9.33664 11.8012C9.33664 11.7088 9.37017 11.557 9.41371 11.4524C9.47359 11.3085 9.56452 11.1798 9.7254 11.0112C9.96585 10.7593 10.1762 10.6172 10.5933 10.4251C11.3089 10.0954 11.5613 9.94317 11.9248 9.62243C12.5095 9.10653 12.9281 8.49335 13.2887 7.62482C13.3979 7.36162 13.5229 7.1078 13.6073 6.97774C13.6373 6.93147 13.7117 6.84351 13.7726 6.78227C13.8624 6.69202 13.8965 6.66661 13.9525 6.64816C14.0311 6.62231 14.0974 6.62783 14.1733 6.66654C14.3057 6.73416 14.4354 6.97904 14.5095 7.30128C14.5557 7.50276 14.6379 8.08129 14.6529 8.31073C14.6812 8.74472 14.7186 8.9698 14.7877 9.12067C14.8328 9.2192 14.9205 9.32959 14.9827 9.36606C15.0396 9.39942 15.1991 9.44251 15.4356 9.4884C15.7247 9.54452 15.7559 9.54948 16.4898 9.65613C17.0989 9.74465 17.3609 9.79876 17.6734 9.90055C18.183 10.0665 18.6887 10.3449 19.1503 10.7135C19.3388 10.864 19.6576 11.157 19.7689 11.282C19.8187 11.3379 19.8886 11.4159 19.9242 11.4552C20.0773 11.6245 20.287 11.9002 20.4431 12.1378C20.7261 12.5684 21.0405 13.189 21.1323 13.4982C21.2048 13.7424 21.2169 14.0089 21.1604 14.1197C21.0971 14.2438 20.9346 14.264 20.6701 14.1807C20.504 14.1284 20.451 14.124 20.4078 14.1589C20.3581 14.1992 20.358 14.3845 20.4074 14.7233C20.527 15.5433 20.5045 16.2389 20.3418 16.7487C20.2917 16.906 20.2449 16.998 20.175 17.0774C20.1088 17.1525 20.0376 17.1881 19.9528 17.1884C19.865 17.1888 19.8171 17.1644 19.7398 17.0798C19.5877 16.9134 19.4823 16.6465 19.3685 16.1405C19.23 15.5245 19.1496 15.2509 19.0227 14.9628C18.7254 14.2882 18.2507 13.8061 17.5263 13.443C17.0506 13.2046 16.4968 13.0444 15.953 12.988C15.611 12.9525 15.1373 12.9739 14.7791 13.041C14.3487 13.1216 13.8835 13.3024 13.4908 13.5417C13.2197 13.7068 12.8224 14.049 12.6019 14.3072C12.0822 14.916 11.724 15.7326 11.6075 16.574C11.556 16.9463 11.5421 17.4559 11.5745 17.7814C11.631 18.3476 11.7525 18.8093 11.9654 19.2659C12.1936 19.7552 12.4021 20.0452 12.7987 20.4249C13.139 20.7507 13.7066 21.0749 14.1873 21.218C14.6535 21.3567 14.9138 21.3879 15.5197 21.3775C15.7438 21.3736 15.9533 21.3669 15.9853 21.3625C16.1249 21.3434 16.4917 21.2874 16.5866 21.2707C16.7486 21.2422 16.8112 21.2462 16.8792 21.2893C16.9516 21.3353 17.0033 21.4002 17.0644 21.5218C17.091 21.5749 17.1187 21.6143 17.1273 21.6114C17.1358 21.6086 17.164 21.5756 17.1899 21.5382Z" fill="black"/>
</svg>
