<svg width="28" height="28" viewBox="0 0 28 28" fill="none" xmlns="http://www.w3.org/2000/svg">
<path d="M21.5189 16.0633C21.7496 16.0633 21.9593 15.974 22.1481 15.7955C22.3368 15.617 22.5466 15.4438 22.7773 15.2758C23.0919 15.0658 23.3121 14.8138 23.438 14.5198C23.5638 14.2258 23.632 13.958 23.6425 13.7165C23.6529 13.475 23.6582 13.2808 23.6582 13.1338C23.6582 12.9238 23.6477 12.677 23.6267 12.3935C23.6058 12.11 23.5953 11.8108 23.5953 11.4958C23.3855 10.9708 23.1181 10.535 22.793 10.1885C22.4679 9.84201 22.1323 9.51126 21.7863 9.19626C21.4402 8.88126 21.1256 8.55051 20.8425 8.20401C20.5593 7.85751 20.3653 7.41127 20.2604 6.86527C20.1975 6.65527 20.1661 6.43477 20.1661 6.20377C20.1661 6.01477 20.2028 5.75752 20.2762 5.43202C20.3496 5.10652 20.4859 4.73902 20.6852 4.32952C20.8844 3.92002 21.1308 3.54202 21.4245 3.19552C21.7181 2.84902 22.0222 2.57077 22.3368 2.36077C22.7773 2.12977 23.202 1.91977 23.611 1.73077C24.02 1.54177 24.4342 1.44727 24.8537 1.44727C25.2732 1.67827 25.6612 1.91977 26.0177 2.17177C26.3743 2.42377 26.5526 2.75977 26.5526 3.17977C26.1121 2.94877 25.7503 2.79127 25.4672 2.70727C25.184 2.62327 24.9586 2.58127 24.7908 2.58127C24.5391 2.58127 24.2874 2.63377 24.0357 2.73877C23.6162 2.73877 23.2754 2.87527 23.0132 3.14827C22.7511 3.42127 22.578 3.72577 22.4941 4.06177C22.4102 4.39777 22.3683 4.70227 22.3683 4.97527C22.3683 5.12227 22.384 5.33752 22.4155 5.62102C22.4469 5.90452 22.5675 6.20377 22.7773 6.51877C23.0919 6.83377 23.4065 7.10152 23.7211 7.32202C24.0357 7.54252 24.3346 7.75251 24.6177 7.95201C24.9009 8.15151 25.1683 8.36151 25.42 8.58201C25.6717 8.80251 25.9024 9.07026 26.1121 9.38526C26.5106 9.70026 26.799 10.1098 26.9773 10.6138C27.1556 11.1178 27.2552 11.5483 27.2762 11.9053C27.2971 12.2623 27.3076 12.5248 27.3076 12.6928C27.3076 13.1128 27.2709 13.5748 27.1975 14.0788C27.1241 14.5828 27.035 15.0973 26.9301 15.6223C26.7413 16.4833 26.5054 17.2655 26.2222 17.969C25.9391 18.6725 25.4829 19.4233 24.8537 20.2213C24.8537 20.4523 24.7593 20.678 24.5705 20.8985C24.3818 21.119 24.2035 21.3133 24.0357 21.4813C23.9308 21.4813 23.8469 21.5075 23.784 21.56C23.7211 21.6125 23.6634 21.665 23.611 21.7175C23.5586 21.77 23.5009 21.8225 23.438 21.875C23.375 21.9275 23.3016 21.9538 23.2177 21.9538C22.987 22.1218 22.8402 22.316 22.7773 22.5365C22.7144 22.757 22.5675 22.9828 22.3368 23.2138C22.2739 23.2768 22.211 23.3503 22.1481 23.4343C22.1061 23.5183 22.0642 23.6075 22.0222 23.702C21.9803 23.7965 21.9593 23.8963 21.9593 24.0013V25.2613L21.0784 26.5528L16.9256 16.8823L16.5481 8.12526L21.5189 16.0633ZM0.691895 14.4568V14.0158C0.922606 14.0158 1.211 14.0315 1.55706 14.063C1.90313 14.0945 2.19152 14.2258 2.42223 14.4568C2.82073 14.8768 3.11437 15.302 3.30313 15.7325C3.49189 16.163 3.58628 16.6933 3.58628 17.3233C3.58628 17.5333 3.54433 17.7695 3.46043 18.032C3.37654 18.2945 3.29789 18.5675 3.22448 18.851C3.15107 19.1345 3.10912 19.3655 3.09864 19.544C3.08815 19.7225 3.08291 19.8433 3.08291 19.9063C3.08291 20.1583 3.12485 20.4208 3.20875 20.6938C3.62822 21.4918 4.15257 22.0535 4.78178 22.379C5.411 22.7045 6.1241 22.9828 6.92111 23.2138C7.34058 23.2978 7.78103 23.3398 8.24246 23.3398C8.70388 23.3398 9.13909 23.2873 9.54807 23.1823C9.95706 23.0773 10.3346 22.925 10.6807 22.7255C11.0267 22.526 11.3046 22.2688 11.5144 21.9538L7.36156 18.6148L10.6964 14.8033L15.6672 17.7958L19.4425 26.5528L15.6672 25.2613C15.4784 25.4503 15.2792 25.5605 15.0694 25.592C14.8597 25.6235 14.6709 25.6393 14.5031 25.6393H12.3323C12.1226 25.6393 11.9129 25.6865 11.7031 25.781C11.4934 25.8755 11.2732 25.9805 11.0425 26.096C10.8117 26.2115 10.5653 26.3165 10.3031 26.411C10.041 26.5055 9.75257 26.5528 9.43796 26.5528C9.01849 26.5528 8.53609 26.4583 7.99077 26.2693C7.44545 26.0803 6.97354 25.8703 6.57504 25.6393C5.81998 25.5553 5.11736 25.403 4.46718 25.1825C3.81699 24.962 3.24545 24.6575 2.75257 24.269C2.25968 23.8805 1.87167 23.3923 1.58852 22.8043C1.30538 22.2163 1.1638 21.5128 1.1638 20.6938C1.1638 20.3788 1.24246 19.9798 1.39976 19.4968C1.55706 19.0138 1.70912 18.5098 1.85594 17.9848C2.00276 17.4598 2.09714 17.0503 2.13909 16.7563C2.18103 16.4623 2.20201 16.2628 2.20201 16.1578C2.20201 15.8218 2.11811 15.5278 1.95032 15.2758C1.71961 15.0448 1.50987 14.8505 1.32111 14.693C1.13234 14.5355 0.922606 14.4568 0.691895 14.4568ZM8.61998 1.44727L14.5031 3.99877L15.2896 15.6223L11.1368 13.5433L8.61998 1.44727ZM4.8447 9.85776L6.92111 1.91977L9.87841 13.5433L6.10313 17.3233L4.8447 9.85776Z" fill="black"/>
</svg>
